<svg xmlns="http://www.w3.org/2000/svg" xmlns:xlink="http://www.w3.org/1999/xlink" width="500" zoomAndPan="magnify" viewBox="0 0 375 374.999991" height="500" preserveAspectRatio="xMidYMid meet" version="1.0"><defs><clipPath id="85450f310d"><path d="M 104.367188 104.367188 L 270.867188 104.367188 L 270.867188 270.867188 L 104.367188 270.867188 Z M 104.367188 104.367188 " clip-rule="nonzero"/></clipPath><clipPath id="b2fc3c378c"><path d="M 169 112.5 L 206 112.5 L 206 149 L 169 149 Z M 169 112.5 " clip-rule="nonzero"/></clipPath><clipPath id="f87111be04"><path d="M 118.875 132 L 150 132 L 150 197 L 118.875 197 Z M 118.875 132 " clip-rule="nonzero"/></clipPath><clipPath id="afb71be478"><path d="M 162 112.5 L 178 112.5 L 178 146 L 162 146 Z M 162 112.5 " clip-rule="nonzero"/></clipPath><clipPath id="01d669f231"><path d="M 197 112.5 L 213 112.5 L 213 146 L 197 146 Z M 197 112.5 " clip-rule="nonzero"/></clipPath><clipPath id="e29fc06981"><path d="M 187 123 L 236 123 L 236 262.5 L 187 262.5 Z M 187 123 " clip-rule="nonzero"/></clipPath><clipPath id="0bc77b89cf"><path d="M 225 132 L 256.125 132 L 256.125 197 L 225 197 Z M 225 132 " clip-rule="nonzero"/></clipPath><clipPath id="75e90b80d1"><path d="M 139 123 L 188 123 L 188 262.5 L 139 262.5 Z M 139 123 " clip-rule="nonzero"/></clipPath></defs><g clip-path="url(#85450f310d)"><path fill="#f5f5f5" d="M 270.867188 187.617188 C 270.867188 188.980469 270.832031 190.339844 270.765625 191.703125 C 270.699219 193.0625 270.597656 194.421875 270.464844 195.777344 C 270.332031 197.132812 270.164062 198.484375 269.964844 199.832031 C 269.765625 201.179688 269.53125 202.519531 269.265625 203.859375 C 269 205.195312 268.703125 206.523438 268.371094 207.84375 C 268.039062 209.167969 267.675781 210.480469 267.28125 211.78125 C 266.886719 213.085938 266.457031 214.378906 266 215.664062 C 265.539062 216.945312 265.050781 218.214844 264.53125 219.476562 C 264.007812 220.734375 263.457031 221.980469 262.875 223.210938 C 262.289062 224.441406 261.679688 225.660156 261.035156 226.859375 C 260.394531 228.0625 259.722656 229.246094 259.023438 230.414062 C 258.320312 231.585938 257.59375 232.734375 256.835938 233.867188 C 256.078125 235 255.296875 236.113281 254.484375 237.207031 C 253.671875 238.300781 252.832031 239.375 251.96875 240.429688 C 251.105469 241.484375 250.214844 242.515625 249.300781 243.523438 C 248.386719 244.535156 247.445312 245.519531 246.484375 246.484375 C 245.519531 247.445312 244.535156 248.386719 243.523438 249.300781 C 242.515625 250.214844 241.484375 251.105469 240.429688 251.96875 C 239.375 252.832031 238.300781 253.671875 237.207031 254.484375 C 236.113281 255.296875 235 256.078125 233.867188 256.835938 C 232.734375 257.59375 231.585938 258.320312 230.414062 259.023438 C 229.246094 259.722656 228.0625 260.394531 226.859375 261.035156 C 225.660156 261.679688 224.441406 262.289062 223.210938 262.875 C 221.980469 263.457031 220.734375 264.007812 219.476562 264.53125 C 218.214844 265.050781 216.945312 265.539062 215.664062 266 C 214.378906 266.457031 213.085938 266.886719 211.78125 267.28125 C 210.480469 267.675781 209.167969 268.039062 207.84375 268.371094 C 206.523438 268.703125 205.195312 269 203.859375 269.265625 C 202.519531 269.53125 201.179688 269.765625 199.832031 269.964844 C 198.484375 270.164062 197.132812 270.332031 195.777344 270.464844 C 194.421875 270.597656 193.0625 270.699219 191.703125 270.765625 C 190.339844 270.832031 188.980469 270.867188 187.617188 270.867188 C 186.253906 270.867188 184.890625 270.832031 183.53125 270.765625 C 182.171875 270.699219 180.8125 270.597656 179.457031 270.464844 C 178.101562 270.332031 176.75 270.164062 175.402344 269.964844 C 174.054688 269.765625 172.710938 269.53125 171.375 269.265625 C 170.039062 269 168.710938 268.703125 167.386719 268.371094 C 166.066406 268.039062 164.753906 267.675781 163.449219 267.28125 C 162.144531 266.886719 160.851562 266.457031 159.570312 266 C 158.289062 265.539062 157.015625 265.050781 155.757812 264.53125 C 154.5 264.007812 153.253906 263.457031 152.023438 262.875 C 150.789062 262.289062 149.574219 261.679688 148.371094 261.035156 C 147.171875 260.394531 145.984375 259.722656 144.816406 259.023438 C 143.648438 258.320312 142.496094 257.59375 141.363281 256.835938 C 140.230469 256.078125 139.117188 255.296875 138.023438 254.484375 C 136.929688 253.671875 135.855469 252.832031 134.804688 251.96875 C 133.75 251.105469 132.71875 250.214844 131.710938 249.300781 C 130.699219 248.386719 129.714844 247.445312 128.75 246.484375 C 127.785156 245.519531 126.847656 244.535156 125.933594 243.523438 C 125.015625 242.515625 124.128906 241.484375 123.261719 240.429688 C 122.398438 239.375 121.5625 238.300781 120.75 237.207031 C 119.9375 236.113281 119.152344 235 118.398438 233.867188 C 117.640625 232.734375 116.910156 231.585938 116.210938 230.414062 C 115.511719 229.246094 114.839844 228.0625 114.195312 226.859375 C 113.554688 225.660156 112.941406 224.441406 112.359375 223.210938 C 111.777344 221.980469 111.226562 220.734375 110.703125 219.476562 C 110.183594 218.214844 109.691406 216.945312 109.234375 215.664062 C 108.773438 214.378906 108.347656 213.085938 107.949219 211.78125 C 107.554688 210.480469 107.191406 209.167969 106.859375 207.84375 C 106.53125 206.523438 106.230469 205.195312 105.964844 203.859375 C 105.699219 202.519531 105.46875 201.179688 105.265625 199.832031 C 105.066406 198.484375 104.902344 197.132812 104.765625 195.777344 C 104.632812 194.421875 104.535156 193.0625 104.464844 191.703125 C 104.398438 190.339844 104.367188 188.980469 104.367188 187.617188 C 104.367188 186.253906 104.398438 184.890625 104.464844 183.53125 C 104.535156 182.171875 104.632812 180.8125 104.765625 179.457031 C 104.902344 178.101562 105.066406 176.75 105.265625 175.402344 C 105.46875 174.054688 105.699219 172.710938 105.964844 171.375 C 106.230469 170.039062 106.53125 168.710938 106.863281 167.386719 C 107.191406 166.066406 107.554688 164.753906 107.949219 163.449219 C 108.347656 162.144531 108.773438 160.851562 109.234375 159.570312 C 109.691406 158.289062 110.183594 157.015625 110.703125 155.757812 C 111.226562 154.5 111.777344 153.253906 112.359375 152.023438 C 112.941406 150.789062 113.554688 149.574219 114.195312 148.371094 C 114.839844 147.171875 115.511719 145.984375 116.210938 144.816406 C 116.910156 143.648438 117.640625 142.496094 118.398438 141.363281 C 119.152344 140.230469 119.9375 139.117188 120.75 138.023438 C 121.5625 136.929688 122.398438 135.855469 123.261719 134.804688 C 124.128906 133.75 125.015625 132.71875 125.933594 131.710938 C 126.847656 130.699219 127.785156 129.714844 128.75 128.75 C 129.714844 127.785156 130.699219 126.847656 131.710938 125.933594 C 132.71875 125.015625 133.75 124.128906 134.804688 123.261719 C 135.855469 122.398438 136.929688 121.5625 138.023438 120.75 C 139.117188 119.9375 140.230469 119.152344 141.363281 118.398438 C 142.496094 117.640625 143.648438 116.910156 144.816406 116.210938 C 145.984375 115.511719 147.171875 114.839844 148.371094 114.195312 C 149.574219 113.554688 150.789062 112.941406 152.023438 112.359375 C 153.253906 111.777344 154.5 111.226562 155.757812 110.703125 C 157.015625 110.183594 158.289062 109.691406 159.570312 109.234375 C 160.851562 108.773438 162.144531 108.347656 163.449219 107.949219 C 164.753906 107.554688 166.066406 107.191406 167.386719 106.863281 C 168.710938 106.53125 170.039062 106.230469 171.375 105.964844 C 172.710938 105.699219 174.054688 105.46875 175.402344 105.265625 C 176.75 105.066406 178.101562 104.902344 179.457031 104.765625 C 180.8125 104.632812 182.171875 104.535156 183.53125 104.464844 C 184.890625 104.398438 186.253906 104.367188 187.617188 104.367188 C 188.980469 104.367188 190.339844 104.398438 191.703125 104.464844 C 193.0625 104.535156 194.421875 104.632812 195.777344 104.765625 C 197.132812 104.902344 198.484375 105.066406 199.832031 105.265625 C 201.179688 105.46875 202.519531 105.699219 203.859375 105.964844 C 205.195312 106.230469 206.523438 106.53125 207.84375 106.863281 C 209.167969 107.191406 210.480469 107.554688 211.78125 107.949219 C 213.085938 108.347656 214.378906 108.773438 215.664062 109.234375 C 216.945312 109.691406 218.214844 110.183594 219.476562 110.703125 C 220.734375 111.226562 221.980469 111.777344 223.210938 112.359375 C 224.441406 112.941406 225.660156 113.554688 226.859375 114.195312 C 228.0625 114.839844 229.246094 115.511719 230.414062 116.210938 C 231.585938 116.910156 232.734375 117.640625 233.867188 118.398438 C 235 119.152344 236.113281 119.9375 237.207031 120.75 C 238.300781 121.5625 239.375 122.398438 240.429688 123.261719 C 241.484375 124.128906 242.515625 125.015625 243.523438 125.933594 C 244.535156 126.847656 245.519531 127.785156 246.484375 128.75 C 247.445312 129.714844 248.386719 130.699219 249.300781 131.710938 C 250.214844 132.71875 251.105469 133.75 251.96875 134.804688 C 252.832031 135.855469 253.671875 136.929688 254.484375 138.023438 C 255.296875 139.117188 256.078125 140.230469 256.835938 141.363281 C 257.59375 142.496094 258.320312 143.648438 259.023438 144.816406 C 259.722656 145.984375 260.394531 147.171875 261.035156 148.371094 C 261.679688 149.574219 262.289062 150.789062 262.875 152.023438 C 263.457031 153.253906 264.007812 154.5 264.53125 155.757812 C 265.050781 157.015625 265.539062 158.289062 266 159.570312 C 266.457031 160.851562 266.886719 162.144531 267.28125 163.449219 C 267.675781 164.753906 268.039062 166.066406 268.371094 167.386719 C 268.703125 168.710938 269 170.039062 269.265625 171.375 C 269.53125 172.710938 269.765625 174.054688 269.964844 175.402344 C 270.164062 176.75 270.332031 178.101562 270.464844 179.457031 C 270.597656 180.8125 270.699219 182.171875 270.765625 183.53125 C 270.832031 184.890625 270.867188 186.253906 270.867188 187.617188 Z M 270.867188 187.617188 " fill-opacity="1" fill-rule="nonzero"/></g><g clip-path="url(#b2fc3c378c)"><path fill="#2a5ea7" d="M 205.292969 112.519531 L 197.667969 137.9375 L 187.5 148.105469 L 177.332031 137.9375 L 169.707031 112.519531 L 205.292969 112.519531 " fill-opacity="1" fill-rule="nonzero"/></g><g clip-path="url(#f87111be04)"><path fill="#3f7bc7" d="M 139.207031 132.855469 L 149.375 158.269531 L 148.480469 175.507812 L 139.207031 196.394531 L 118.875 186.230469 L 139.207031 132.855469 " fill-opacity="1" fill-rule="nonzero"/></g><g clip-path="url(#afb71be478)"><path fill="#3f7bc7" d="M 163.046875 123.324219 L 162.082031 120.144531 L 169.707031 112.519531 L 177.332031 137.9375 L 169.707031 145.5625 L 163.046875 123.324219 " fill-opacity="1" fill-rule="nonzero"/></g><g clip-path="url(#01d669f231)"><path fill="#4985cd" d="M 212.917969 120.144531 L 211.972656 123.324219 L 205.292969 145.5625 L 197.667969 137.9375 L 205.292969 112.519531 L 212.917969 120.144531 " fill-opacity="1" fill-rule="nonzero"/></g><g clip-path="url(#e29fc06981)"><path fill="#3f7bc7" d="M 235.792969 132.855469 L 225.625 158.269531 L 226.519531 175.507812 L 230.707031 257.394531 L 187.5 262.480469 L 187.5 148.105469 L 197.667969 137.9375 L 205.292969 145.5625 L 211.972656 123.324219 L 235.792969 132.855469 " fill-opacity="1" fill-rule="nonzero"/></g><g clip-path="url(#0bc77b89cf)"><path fill="#336dbe" d="M 235.792969 132.855469 L 256.125 186.230469 L 235.792969 196.394531 L 226.519531 175.507812 L 225.625 158.269531 L 235.792969 132.855469 " fill-opacity="1" fill-rule="nonzero"/></g><g clip-path="url(#75e90b80d1)"><path fill="#4985cd" d="M 187.5 148.105469 L 187.5 262.480469 L 144.292969 257.394531 L 148.480469 175.507812 L 149.375 158.269531 L 139.207031 132.855469 L 163.046875 123.324219 L 169.707031 145.5625 L 177.332031 137.9375 L 187.5 148.105469 " fill-opacity="1" fill-rule="nonzero"/></g></svg>