<svg xmlns="http://www.w3.org/2000/svg" xmlns:xlink="http://www.w3.org/1999/xlink" width="500" zoomAndPan="magnify" viewBox="0 0 375 374.999991" height="500" preserveAspectRatio="xMidYMid meet" version="1.0"><defs><g/><clipPath id="b3a259f2f9"><path d="M 88.28125 85.210938 L 287.03125 85.210938 L 287.03125 289.960938 L 88.28125 289.960938 Z M 88.28125 85.210938 " clip-rule="nonzero"/></clipPath></defs><g clip-path="url(#b3a259f2f9)"><path fill="#ffffff" d="M 261.6875 129.59375 L 261.6875 120.914062 C 261.6875 101.351562 245.757812 85.433594 226.179688 85.433594 L 149.132812 85.433594 C 129.554688 85.433594 113.625 101.351562 113.625 120.914062 L 113.625 129.59375 C 99.136719 132.859375 88.285156 145.816406 88.285156 161.265625 L 88.285156 162.574219 L 103.691406 258.804688 C 104.492188 276 118.742188 289.742188 136.144531 289.742188 L 240.035156 289.742188 C 257.464844 289.742188 271.738281 275.957031 272.492188 258.722656 L 287.027344 162.503906 L 287.027344 161.269531 C 287.027344 145.816406 276.175781 132.859375 261.6875 129.59375 Z M 261.6875 129.59375 " fill-opacity="1" fill-rule="nonzero"/></g><path fill="#e94e30" d="M 254.535156 145.265625 L 245.210938 145.265625 L 245.210938 120.914062 C 245.210938 110.414062 236.6875 101.898438 226.179688 101.898438 L 149.132812 101.898438 C 138.625 101.898438 130.101562 110.414062 130.101562 120.914062 L 130.101562 145.265625 L 120.777344 145.265625 C 111.933594 145.265625 104.761719 152.429688 104.761719 161.265625 L 120.132812 257.273438 C 120.132812 266.109375 127.300781 273.277344 136.144531 273.277344 L 240.035156 273.277344 C 248.878906 273.277344 256.050781 266.109375 256.050781 257.273438 L 270.550781 161.265625 C 270.550781 152.429688 263.382812 145.265625 254.535156 145.265625 Z M 150.292969 134.417969 C 150.292969 127.597656 155.824219 122.070312 162.648438 122.070312 L 212.667969 122.070312 C 219.492188 122.070312 225.023438 127.597656 225.023438 134.417969 L 225.023438 145.265625 L 150.296875 145.265625 L 150.296875 134.417969 Z M 150.292969 134.417969 " fill-opacity="1" fill-rule="nonzero"/><g fill="#ffffff" fill-opacity="1"><g transform="translate(125.378902, 200.438351)"><g><path d="M 2.984375 -23.71875 L 10.375 -23.71875 C 13.738281 -23.71875 16.175781 -23.238281 17.6875 -22.28125 C 19.207031 -21.332031 19.96875 -19.8125 19.96875 -17.71875 C 19.96875 -16.300781 19.632812 -15.140625 18.96875 -14.234375 C 18.3125 -13.328125 17.429688 -12.78125 16.328125 -12.59375 L 16.328125 -12.4375 C 17.828125 -12.09375 18.910156 -11.460938 19.578125 -10.546875 C 20.242188 -9.628906 20.578125 -8.40625 20.578125 -6.875 C 20.578125 -4.71875 19.796875 -3.03125 18.234375 -1.8125 C 16.671875 -0.601562 14.546875 0 11.859375 0 L 2.984375 0 Z M 8.015625 -14.328125 L 10.9375 -14.328125 C 12.300781 -14.328125 13.285156 -14.535156 13.890625 -14.953125 C 14.503906 -15.378906 14.8125 -16.082031 14.8125 -17.0625 C 14.8125 -17.96875 14.476562 -18.617188 13.8125 -19.015625 C 13.144531 -19.410156 12.09375 -19.609375 10.65625 -19.609375 L 8.015625 -19.609375 Z M 8.015625 -10.34375 L 8.015625 -4.15625 L 11.296875 -4.15625 C 12.679688 -4.15625 13.703125 -4.421875 14.359375 -4.953125 C 15.015625 -5.484375 15.34375 -6.296875 15.34375 -7.390625 C 15.34375 -9.359375 13.9375 -10.34375 11.125 -10.34375 Z M 8.015625 -10.34375 "/></g></g></g><g fill="#ffffff" fill-opacity="1"><g transform="translate(147.708247, 200.438351)"><g><path d="M 6.546875 -9.109375 C 6.546875 -7.304688 6.835938 -5.945312 7.421875 -5.03125 C 8.015625 -4.113281 8.972656 -3.65625 10.296875 -3.65625 C 11.617188 -3.65625 12.566406 -4.109375 13.140625 -5.015625 C 13.722656 -5.929688 14.015625 -7.296875 14.015625 -9.109375 C 14.015625 -10.898438 13.722656 -12.242188 13.140625 -13.140625 C 12.554688 -14.035156 11.597656 -14.484375 10.265625 -14.484375 C 8.953125 -14.484375 8.003906 -14.035156 7.421875 -13.140625 C 6.835938 -12.253906 6.546875 -10.910156 6.546875 -9.109375 Z M 19.078125 -9.109375 C 19.078125 -6.148438 18.296875 -3.835938 16.734375 -2.171875 C 15.179688 -0.503906 13.015625 0.328125 10.234375 0.328125 C 8.492188 0.328125 6.957031 -0.0507812 5.625 -0.8125 C 4.300781 -1.582031 3.28125 -2.679688 2.5625 -4.109375 C 1.851562 -5.535156 1.5 -7.203125 1.5 -9.109375 C 1.5 -12.066406 2.269531 -14.367188 3.8125 -16.015625 C 5.363281 -17.660156 7.539062 -18.484375 10.34375 -18.484375 C 12.082031 -18.484375 13.613281 -18.101562 14.9375 -17.34375 C 16.269531 -16.59375 17.289062 -15.503906 18 -14.078125 C 18.71875 -12.660156 19.078125 -11.003906 19.078125 -9.109375 Z M 19.078125 -9.109375 "/></g></g></g><g fill="#ffffff" fill-opacity="1"><g transform="translate(168.284997, 200.438351)"><g><path d="M 12.5625 0.328125 C 10.425781 0.328125 8.753906 -0.445312 7.546875 -2 L 7.28125 -2 C 7.457031 -0.476562 7.546875 0.398438 7.546875 0.640625 L 7.546875 7.984375 L 2.59375 7.984375 L 2.59375 -18.140625 L 6.625 -18.140625 L 7.3125 -15.796875 L 7.546875 -15.796875 C 8.703125 -17.585938 10.414062 -18.484375 12.6875 -18.484375 C 14.832031 -18.484375 16.507812 -17.65625 17.71875 -16 C 18.925781 -14.34375 19.53125 -12.046875 19.53125 -9.109375 C 19.53125 -7.171875 19.242188 -5.488281 18.671875 -4.0625 C 18.109375 -2.632812 17.300781 -1.546875 16.25 -0.796875 C 15.207031 -0.046875 13.976562 0.328125 12.5625 0.328125 Z M 11.09375 -14.53125 C 9.875 -14.53125 8.984375 -14.148438 8.421875 -13.390625 C 7.859375 -12.640625 7.566406 -11.398438 7.546875 -9.671875 L 7.546875 -9.140625 C 7.546875 -7.191406 7.832031 -5.796875 8.40625 -4.953125 C 8.988281 -4.109375 9.910156 -3.6875 11.171875 -3.6875 C 13.378906 -3.6875 14.484375 -5.515625 14.484375 -9.171875 C 14.484375 -10.953125 14.210938 -12.289062 13.671875 -13.1875 C 13.128906 -14.082031 12.269531 -14.53125 11.09375 -14.53125 Z M 11.09375 -14.53125 "/></g></g></g><g fill="#ffffff" fill-opacity="1"><g transform="translate(189.316124, 200.438351)"><g><path d="M 12.5625 0.328125 C 10.425781 0.328125 8.753906 -0.445312 7.546875 -2 L 7.28125 -2 C 7.457031 -0.476562 7.546875 0.398438 7.546875 0.640625 L 7.546875 7.984375 L 2.59375 7.984375 L 2.59375 -18.140625 L 6.625 -18.140625 L 7.3125 -15.796875 L 7.546875 -15.796875 C 8.703125 -17.585938 10.414062 -18.484375 12.6875 -18.484375 C 14.832031 -18.484375 16.507812 -17.65625 17.71875 -16 C 18.925781 -14.34375 19.53125 -12.046875 19.53125 -9.109375 C 19.53125 -7.171875 19.242188 -5.488281 18.671875 -4.0625 C 18.109375 -2.632812 17.300781 -1.546875 16.25 -0.796875 C 15.207031 -0.046875 13.976562 0.328125 12.5625 0.328125 Z M 11.09375 -14.53125 C 9.875 -14.53125 8.984375 -14.148438 8.421875 -13.390625 C 7.859375 -12.640625 7.566406 -11.398438 7.546875 -9.671875 L 7.546875 -9.140625 C 7.546875 -7.191406 7.832031 -5.796875 8.40625 -4.953125 C 8.988281 -4.109375 9.910156 -3.6875 11.171875 -3.6875 C 13.378906 -3.6875 14.484375 -5.515625 14.484375 -9.171875 C 14.484375 -10.953125 14.210938 -12.289062 13.671875 -13.1875 C 13.128906 -14.082031 12.269531 -14.53125 11.09375 -14.53125 Z M 11.09375 -14.53125 "/></g></g></g><g fill="#ffffff" fill-opacity="1"><g transform="translate(210.34725, 200.438351)"><g><path d="M 10.109375 -14.96875 C 9.054688 -14.96875 8.234375 -14.632812 7.640625 -13.96875 C 7.046875 -13.300781 6.707031 -12.351562 6.625 -11.125 L 13.5625 -11.125 C 13.539062 -12.351562 13.222656 -13.300781 12.609375 -13.96875 C 11.992188 -14.632812 11.160156 -14.96875 10.109375 -14.96875 Z M 10.8125 0.328125 C 7.882812 0.328125 5.597656 -0.476562 3.953125 -2.09375 C 2.316406 -3.707031 1.5 -5.988281 1.5 -8.9375 C 1.5 -11.976562 2.253906 -14.328125 3.765625 -15.984375 C 5.285156 -17.648438 7.390625 -18.484375 10.078125 -18.484375 C 12.640625 -18.484375 14.632812 -17.753906 16.0625 -16.296875 C 17.488281 -14.835938 18.203125 -12.816406 18.203125 -10.234375 L 18.203125 -7.84375 L 6.5 -7.84375 C 6.5625 -6.4375 6.976562 -5.335938 7.75 -4.546875 C 8.53125 -3.753906 9.625 -3.359375 11.03125 -3.359375 C 12.125 -3.359375 13.15625 -3.472656 14.125 -3.703125 C 15.101562 -3.929688 16.125 -4.289062 17.1875 -4.78125 L 17.1875 -0.953125 C 16.320312 -0.523438 15.394531 -0.207031 14.40625 0 C 13.425781 0.21875 12.226562 0.328125 10.8125 0.328125 Z M 10.8125 0.328125 "/></g></g></g><g fill="#ffffff" fill-opacity="1"><g transform="translate(229.982793, 200.438351)"><g><path d="M 10.109375 -14.96875 C 9.054688 -14.96875 8.234375 -14.632812 7.640625 -13.96875 C 7.046875 -13.300781 6.707031 -12.351562 6.625 -11.125 L 13.5625 -11.125 C 13.539062 -12.351562 13.222656 -13.300781 12.609375 -13.96875 C 11.992188 -14.632812 11.160156 -14.96875 10.109375 -14.96875 Z M 10.8125 0.328125 C 7.882812 0.328125 5.597656 -0.476562 3.953125 -2.09375 C 2.316406 -3.707031 1.5 -5.988281 1.5 -8.9375 C 1.5 -11.976562 2.253906 -14.328125 3.765625 -15.984375 C 5.285156 -17.648438 7.390625 -18.484375 10.078125 -18.484375 C 12.640625 -18.484375 14.632812 -17.753906 16.0625 -16.296875 C 17.488281 -14.835938 18.203125 -12.816406 18.203125 -10.234375 L 18.203125 -7.84375 L 6.5 -7.84375 C 6.5625 -6.4375 6.976562 -5.335938 7.75 -4.546875 C 8.53125 -3.753906 9.625 -3.359375 11.03125 -3.359375 C 12.125 -3.359375 13.15625 -3.472656 14.125 -3.703125 C 15.101562 -3.929688 16.125 -4.289062 17.1875 -4.78125 L 17.1875 -0.953125 C 16.320312 -0.523438 15.394531 -0.207031 14.40625 0 C 13.425781 0.21875 12.226562 0.328125 10.8125 0.328125 Z M 10.8125 0.328125 "/></g></g></g><path stroke-linecap="butt" transform="matrix(0.75, 0, 0, 0.75, 127.499996, 218.534239)" fill="none" stroke-linejoin="miter" d="M 0.00000516333 2.001223 L 160.000016 2.001223 " stroke="#ffffff" stroke-width="4" stroke-opacity="1" stroke-miterlimit="4"/></svg>