<svg xmlns="http://www.w3.org/2000/svg" xmlns:xlink="http://www.w3.org/1999/xlink" width="500" zoomAndPan="magnify" viewBox="0 0 375 374.999991" height="500" preserveAspectRatio="xMidYMid meet" version="1.0"><defs><clipPath id="df0fda6fcd"><path d="M 112.5 112.5 L 262.5 112.5 L 262.5 262.5 L 112.5 262.5 Z M 112.5 112.5 " clip-rule="nonzero"/></clipPath></defs><rect x="-37.5" width="450" fill="#ffffff" y="-37.499999" height="449.999989" fill-opacity="1"/><rect x="-37.5" width="450" fill="#ffffff" y="-37.499999" height="449.999989" fill-opacity="1"/><rect x="-37.5" width="450" fill="#ffffff" y="-37.499999" height="449.999989" fill-opacity="1"/><path stroke-linecap="butt" transform="matrix(0.75, 0, 0, 0.75, 127.499996, 218.534239)" fill="none" stroke-linejoin="miter" d="M 0.00000516333 2.001223 L 160.000016 2.001223 " stroke="#ffffff" stroke-width="4" stroke-opacity="1" stroke-miterlimit="4"/><path fill="#ed5f1e" d="M 209.636719 182.859375 C 209.636719 183.734375 209.59375 184.609375 209.507812 185.484375 C 209.421875 186.355469 209.292969 187.222656 209.121094 188.082031 C 208.953125 188.941406 208.738281 189.792969 208.484375 190.632812 C 208.230469 191.472656 207.933594 192.296875 207.597656 193.105469 C 207.261719 193.917969 206.890625 194.707031 206.476562 195.480469 C 206.0625 196.253906 205.613281 197.007812 205.125 197.734375 C 204.636719 198.464844 204.113281 199.167969 203.558594 199.847656 C 203.003906 200.523438 202.414062 201.171875 201.792969 201.792969 C 201.171875 202.414062 200.523438 203.003906 199.847656 203.558594 C 199.167969 204.113281 198.464844 204.636719 197.734375 205.125 C 197.007812 205.613281 196.253906 206.0625 195.480469 206.476562 C 194.707031 206.890625 193.917969 207.261719 193.105469 207.597656 C 192.296875 207.933594 191.472656 208.230469 190.632812 208.484375 C 189.792969 208.738281 188.941406 208.953125 188.082031 209.121094 C 187.222656 209.292969 186.355469 209.421875 185.484375 209.507812 C 184.609375 209.59375 183.734375 209.636719 182.859375 209.636719 C 181.980469 209.636719 181.105469 209.59375 180.234375 209.507812 C 179.359375 209.421875 178.492188 209.292969 177.632812 209.121094 C 176.773438 208.953125 175.925781 208.738281 175.085938 208.484375 C 174.246094 208.230469 173.421875 207.933594 172.609375 207.597656 C 171.800781 207.261719 171.007812 206.890625 170.234375 206.476562 C 169.460938 206.0625 168.710938 205.613281 167.980469 205.125 C 167.25 204.636719 166.546875 204.113281 165.871094 203.558594 C 165.191406 203.003906 164.542969 202.414062 163.921875 201.792969 C 163.300781 201.171875 162.714844 200.523438 162.15625 199.847656 C 161.601562 199.167969 161.078125 198.464844 160.59375 197.734375 C 160.105469 197.007812 159.65625 196.253906 159.242188 195.480469 C 158.828125 194.707031 158.453125 193.917969 158.117188 193.105469 C 157.78125 192.296875 157.488281 191.472656 157.230469 190.632812 C 156.976562 189.792969 156.765625 188.941406 156.59375 188.082031 C 156.421875 187.222656 156.292969 186.355469 156.207031 185.484375 C 156.121094 184.609375 156.078125 183.734375 156.078125 182.859375 C 156.078125 181.980469 156.121094 181.105469 156.207031 180.234375 C 156.292969 179.359375 156.421875 178.492188 156.59375 177.632812 C 156.765625 176.773438 156.976562 175.925781 157.230469 175.085938 C 157.488281 174.246094 157.78125 173.421875 158.117188 172.609375 C 158.453125 171.800781 158.828125 171.007812 159.242188 170.234375 C 159.65625 169.460938 160.105469 168.710938 160.59375 167.980469 C 161.078125 167.25 161.601562 166.546875 162.15625 165.871094 C 162.714844 165.191406 163.300781 164.542969 163.921875 163.921875 C 164.542969 163.300781 165.191406 162.714844 165.871094 162.15625 C 166.546875 161.601562 167.25 161.078125 167.980469 160.59375 C 168.710938 160.105469 169.460938 159.65625 170.234375 159.242188 C 171.007812 158.828125 171.800781 158.453125 172.609375 158.117188 C 173.421875 157.78125 174.246094 157.488281 175.085938 157.230469 C 175.925781 156.976562 176.773438 156.765625 177.632812 156.59375 C 178.492188 156.421875 179.359375 156.292969 180.234375 156.207031 C 181.105469 156.121094 181.980469 156.078125 182.859375 156.078125 C 183.734375 156.078125 184.609375 156.121094 185.484375 156.207031 C 186.355469 156.292969 187.222656 156.421875 188.082031 156.59375 C 188.941406 156.765625 189.792969 156.976562 190.632812 157.230469 C 191.472656 157.488281 192.296875 157.78125 193.105469 158.117188 C 193.917969 158.453125 194.707031 158.828125 195.480469 159.242188 C 196.253906 159.65625 197.007812 160.105469 197.734375 160.59375 C 198.464844 161.078125 199.167969 161.601562 199.847656 162.15625 C 200.523438 162.714844 201.171875 163.300781 201.792969 163.921875 C 202.414062 164.542969 203.003906 165.191406 203.558594 165.871094 C 204.113281 166.546875 204.636719 167.25 205.125 167.980469 C 205.613281 168.710938 206.0625 169.460938 206.476562 170.234375 C 206.890625 171.007812 207.261719 171.800781 207.597656 172.609375 C 207.933594 173.421875 208.230469 174.246094 208.484375 175.085938 C 208.738281 175.925781 208.953125 176.773438 209.121094 177.632812 C 209.292969 178.492188 209.421875 179.359375 209.507812 180.234375 C 209.59375 181.105469 209.636719 181.980469 209.636719 182.859375 Z M 209.636719 182.859375 " fill-opacity="1" fill-rule="nonzero"/><g clip-path="url(#df0fda6fcd)"><path fill="#ed5f1e" d="M 187.5 112.5 C 146.078125 112.5 112.5 146.078125 112.5 187.5 C 112.5 228.921875 146.078125 262.5 187.5 262.5 C 228.921875 262.5 262.5 228.921875 262.5 187.5 C 262.5 146.078125 228.921875 112.5 187.5 112.5 Z M 231.113281 231.113281 C 228.324219 233.898438 223.800781 233.898438 221.011719 231.113281 L 206.402344 216.5 C 199.75 221.164062 191.65625 223.90625 182.921875 223.917969 C 160.550781 223.953125 142.164062 205.902344 141.800781 183.539062 C 141.425781 160.320312 160.320312 141.425781 183.539062 141.800781 C 205.902344 142.164062 223.953125 160.550781 223.917969 182.921875 C 223.90625 191.65625 221.164062 199.75 216.5 206.402344 L 231.113281 221.011719 C 233.898438 223.800781 233.898438 228.324219 231.113281 231.113281 Z M 231.113281 231.113281 " fill-opacity="1" fill-rule="nonzero"/></g></svg>